<svg xmlns="http://www.w3.org/2000/svg" viewBox="0 0 1200 630" width="1200" height="630">
  <!-- Background -->
  <rect width="1200" height="630" fill="#1c1a17"/>

  <!-- Subtle gradient overlay -->
  <defs>
    <radialGradient id="bgGlow" cx="50%" cy="50%" r="70%">
      <stop offset="0%" stop-color="#2a2825"/>
      <stop offset="100%" stop-color="#1c1a17"/>
    </radialGradient>
    <radialGradient id="logoGlow" cx="50%" cy="50%" r="50%">
      <stop offset="0%" stop-color="#d4a060" stop-opacity="0.3"/>
      <stop offset="100%" stop-color="#d4a060" stop-opacity="0"/>
    </radialGradient>
  </defs>

  <rect width="1200" height="630" fill="url(#bgGlow)"/>

  <!-- Glow behind logo -->
  <ellipse cx="600" cy="260" rx="200" ry="200" fill="url(#logoGlow)"/>

  <!-- Lightning bolt logo (scaled and centered) -->
  <g transform="translate(500, 120) scale(0.4)">
    <path d="M320 48L176 240h80l-48 224 144-224h-80z" fill="#d4a060"/>
  </g>

  <!-- EIGHTPM text -->
  <text x="600" y="420"
        font-family="system-ui, -apple-system, sans-serif"
        font-size="72"
        font-weight="700"
        fill="#d4a060"
        text-anchor="middle"
        letter-spacing="8">EIGHTPM</text>

  <!-- Tagline -->
  <text x="600" y="480"
        font-family="system-ui, -apple-system, sans-serif"
        font-size="28"
        fill="#8a8478"
        text-anchor="middle"
        letter-spacing="4">LIVE MUSIC ARCHIVE</text>

  <!-- Bottom accent line -->
  <rect x="450" y="520" width="300" height="2" fill="#d4a060" opacity="0.5"/>

  <!-- Decorative corner elements -->
  <path d="M40 40 L40 80 M40 40 L80 40" stroke="#3a3632" stroke-width="2" fill="none"/>
  <path d="M1160 40 L1160 80 M1160 40 L1120 40" stroke="#3a3632" stroke-width="2" fill="none"/>
  <path d="M40 590 L40 550 M40 590 L80 590" stroke="#3a3632" stroke-width="2" fill="none"/>
  <path d="M1160 590 L1160 550 M1160 590 L1120 590" stroke="#3a3632" stroke-width="2" fill="none"/>
</svg>
